<svg width="12" height="12" viewBox="0 0 12 12" fill="none" xmlns="http://www.w3.org/2000/svg">
<path fill-rule="evenodd" clip-rule="evenodd" d="M0.625214 6.00005C0.625214 8.96505 3.03521 11.3751 6.00021 11.3751C8.96521 11.3751 11.3752 8.96505 11.3752 6.00005C11.3752 3.03505 8.96521 0.625053 6.00021 0.625053C3.03521 0.625053 0.625214 3.03505 0.625214 6.00005ZM5.02494 7.6801C5.09494 7.7501 5.18994 7.7901 5.28994 7.7901C5.38994 7.7901 5.48494 7.7501 5.55494 7.6801L8.38994 4.8451C8.53494 4.7001 8.53494 4.4601 8.38994 4.3151C8.24494 4.1701 8.00494 4.1701 7.85994 4.3151L5.28994 6.8851L4.13994 5.7351C3.99494 5.5901 3.75494 5.5901 3.60994 5.7351C3.46494 5.8801 3.46494 6.1201 3.60994 6.2651L5.02494 7.6801Z" fill="#AFB5C0"/>
</svg>
